<?xml version="1.0" encoding="UTF-8" standalone="no"?>
<!DOCTYPE svg  PUBLIC '-//W3C//DTD SVG 1.1//EN'  'http://www.w3.org/Graphics/SVG/1.1/DTD/svg11.dtd'>
<svg version="1.1" xmlns="http://www.w3.org/2000/svg">
<defs>
<font id="AvenirNextLTPro-DemiIt" horiz-adv-x="610">
<font-face ascent="756" slope="-12" font-style="italic" underline-thickness="50" unicode-range="U+0020-00FE" x-height="480" cap-height="708" bbox="-122 -250 1055 956" descent="-244" underline-position="-250" font-family="o" units-per-em="1000" font-weight="600" panose-1="2 11 7 4 2 2 2 2 2 4"/>
<missing-glyph/>
<glyph unicode=" " horiz-adv-x="250" glyph-name="space"/>
<glyph unicode="!" horiz-adv-x="295" glyph-name="exclam" d="M191 221h-117l86 487h117zM186 72q0 -31 -21.5 -53.5t-52.5 -22.5t-52 19.5t-21 52.5q0 32 22.5 54t53.5 22t51 -20t20 -52z"/>
<glyph unicode='&quot;' horiz-adv-x="450" glyph-name="quotedbl" d="M377 445h-100l46 263h100zM201 445h-100l47 263h100z"/>
<glyph unicode="#" horiz-adv-x="590" glyph-name="numbersign" d="M563 416h-102l-39 -124h90l-14 -83h-100l-68 -209h-86l67 209h-105l-67 -209h-86l67 209h-91l15 83h101l40 124h-90l14 83h102l67 209h86l-66 -209h104l67 209h86l-67 -209h90zM376 416h-105l-39 -124h104z"/>
<glyph unicode="$" glyph-name="dollar" d="M340 618q-47 -3 -76.5 -29.5t-29.5 -73.5q0 -62 73 -87zM335 298l-38 -207q51 3 81.5 32.5t30.5 77.5q0 37 -18.5 59.5t-55.5 37.5zM358 720l13 72h50l-13 -73q122 -11 173 -82l-89 -71q-39 52 -101 53l-37 -207q90 -35 132.5 -79.5t42.5 -118.5q0 -93 -67 -154.5 t-182 -69.5l-13 -74h-50l13 74q-66 3 -122.5 30.5t-86.5 78.5l96 68q19 -33 55.5 -54.5t75.5 -21.5l39 225q-169 53 -169 184q0 94 65 155t175 65z"/>
<glyph unicode="%" horiz-adv-x="903" glyph-name="percent" d="M233 354q-70 0 -116 44.5t-46 111.5q0 88 59 149t148 61q71 0 115.5 -43.5t44.5 -110.5q0 -90 -58 -151t-147 -61zM342 552q0 33 -20.5 56t-53.5 23q-45 0 -73 -31t-28 -78q0 -33 20 -56t53 -23q46 0 74 31t28 78zM642 -11q-70 0 -116 44.5t-46 111.5q0 88 59 149t148 61 q71 0 115.5 -43.5t44.5 -110.5q0 -90 -58 -151t-147 -61zM751 187q0 33 -20.5 56t-53.5 23q-45 0 -73 -31t-28 -78q0 -33 20 -56t53 -23q46 0 74 31t28 78zM764 701l-547 -734l-62 39l547 734z"/>
<glyph unicode="&amp;" horiz-adv-x="739" glyph-name="ampersand" d="M399 170l-124 151q-127 -44 -127 -135q0 -42 31.5 -69t75.5 -27q78 0 144 80zM442 558q0 33 -19.5 53t-52.5 20q-39 0 -64 -26t-25 -65q0 -55 40 -101q54 19 87.5 50t33.5 69zM375 366l94 -114l86 122h142l-158 -201l147 -173h-146l-70 89q-103 -103 -225 -103 q-99 0 -159 49t-60 141q0 152 190 223q-45 63 -45 135q0 86 56.5 139t140.5 53q80 0 132.5 -44t52.5 -119q0 -119 -178 -197z"/>
<glyph unicode="&apos;" horiz-adv-x="274" glyph-name="quotesingle" d="M201 445h-100l46 263h100z"/>
<glyph unicode="(" horiz-adv-x="320" glyph-name="parenleft" d="M191 -112l-90 -43q-79 145 -79 330q0 299 235 557l73 -54q-102 -113 -154 -245t-52 -257q0 -160 67 -288z"/>
<glyph unicode=")" horiz-adv-x="320" glyph-name="parenright" d="M122 690l90 43q79 -145 79 -330q0 -299 -235 -557l-73 54q102 113 154 245t52 257q0 160 -67 288z"/>
<glyph unicode="*" horiz-adv-x="462" glyph-name="asterisk" d="M312 708v-145l137 45l25 -75l-139 -45l87 -119l-65 -47l-87 120l-85 -117l-63 47l87 116l-140 48l25 75l139 -48v145h79z"/>
<glyph unicode="+" horiz-adv-x="666" glyph-name="plus" d="M62 354h220v220h102v-220h220v-102h-220v-220h-102v220h-220v102z"/>
<glyph unicode="," horiz-adv-x="260" glyph-name="comma" d="M179 136l-131 -263h-99l116 263h114z"/>
<glyph unicode="-" horiz-adv-x="320" glyph-name="hyphen" d="M260 196h-239l18 100h239z"/>
<glyph unicode="." horiz-adv-x="260" glyph-name="period" d="M159 72q0 -31 -21.5 -53.5t-52.5 -22.5t-52 19.5t-21 52.5q0 32 22.5 54t53.5 22t51 -20t20 -52z"/>
<glyph unicode="/" horiz-adv-x="388" glyph-name="slash" d="M459 725l-448 -772l-76 30l448 773z"/>
<glyph unicode="0" glyph-name="zero" d="M367 726q105 0 156 -68t51 -176q0 -83 -16.5 -165.5t-50.5 -160t-97 -126t-147 -48.5q-107 0 -159 66.5t-52 172.5q0 65 10 132t34 135t59 120t90 85t122 33zM357 627q-53 0 -96 -57t-65.5 -144.5t-22.5 -182.5q0 -160 98 -160q51 0 93 57t64.5 144.5t22.5 182.5 q0 160 -94 160z"/>
<glyph unicode="1" glyph-name="one" d="M343 0h-118l100 565l-160 -115l-56 90l245 168h114z"/>
<glyph unicode="2" glyph-name="two" d="M191 108h312l-19 -108h-470l19 108l316 265q57 48 80.5 84.5t23.5 73.5q0 45 -27.5 70t-77.5 25q-47 0 -83 -29.5t-52 -83.5l-108 31q32 88 99 135t152 47q102 0 160.5 -51.5t58.5 -134.5q0 -51 -21.5 -95t-52.5 -75.5t-91 -81.5z"/>
<glyph unicode="3" glyph-name="three" d="M265 416q163 0 163 125q0 38 -26 62.5t-70 24.5q-83 0 -127 -80l-88 53q71 125 225 125q86 0 144.5 -49.5t58.5 -131.5q0 -74 -41.5 -118t-101.5 -58v-2q52 -12 84 -53.5t32 -95.5q0 -109 -73.5 -172.5t-190.5 -63.5q-86 0 -146 41t-83 115l111 35q23 -89 125 -89 q65 0 100 33t35 89q0 60 -43.5 88t-107.5 28h-30l16 94h34z"/>
<glyph unicode="4" glyph-name="four" d="M536 148h-97l-25 -148h-114l25 148h-330l19 109l371 451h150l-81 -459h100zM341 249l60 334h-4l-263 -334h207z"/>
<glyph unicode="5" glyph-name="five" d="M262 603l-34 -155q34 9 75 9q54 0 101 -19.5t81.5 -68.5t34.5 -121q0 -127 -78 -196.5t-187 -69.5q-86 0 -149.5 40t-85.5 102l107 44q13 -38 46 -61t78 -23q69 0 108.5 42t39.5 109q0 62 -41 94t-99 32q-80 0 -159 -43l77 390h378l-21 -105h-272z"/>
<glyph unicode="6" glyph-name="six" d="M140 197q0 -53 36 -84.5t86 -31.5q69 0 110 43t41 114q0 54 -34.5 85.5t-81.5 31.5q-71 0 -114 -45t-43 -113zM270 438q21 7 48 7q100 0 157 -57.5t57 -141.5q0 -111 -74 -187.5t-201 -76.5q-103 0 -169.5 58.5t-66.5 156.5q0 103 101 227l232 284h143l-228 -268z"/>
<glyph unicode="7" glyph-name="seven" d="M582 600l-405 -600h-147l423 602h-340l18 106h470z"/>
<glyph unicode="8" glyph-name="eight" d="M165 189q0 -53 32.5 -80t78.5 -27q67 0 104.5 37.5t37.5 96.5q0 49 -30 77.5t-79 28.5q-63 0 -103.5 -37.5t-40.5 -95.5zM425 367l2 -3q46 -15 75.5 -55.5t29.5 -92.5q0 -105 -74.5 -169.5t-189.5 -64.5q-39 0 -75 10t-69 31.5t-53 61t-20 92.5q0 78 49 134t119 69v3 q-38 19 -61 54t-23 79q0 101 68.5 155.5t164.5 54.5q82 0 140.5 -44.5t58.5 -129.5q0 -75 -41 -120.5t-101 -64.5zM245 513q0 -40 25.5 -64t67.5 -24q49 0 83 30t34 82q0 41 -27 64.5t-70 23.5q-51 0 -82 -31.5t-31 -80.5z"/>
<glyph unicode="9" glyph-name="nine" d="M476 511q0 53 -36 84.5t-86 31.5q-69 0 -110 -43t-41 -114q0 -54 34.5 -85.5t81.5 -31.5q71 0 114 45t43 113zM346 270q-21 -7 -48 -7q-100 0 -157 57.5t-57 141.5q0 111 74 187.5t201 76.5q103 0 169.5 -58.5t66.5 -156.5q0 -103 -101 -227l-232 -284h-143l228 268z"/>
<glyph unicode=":" horiz-adv-x="300" glyph-name="colon" d="M182 72q0 -31 -21.5 -53.5t-52.5 -22.5t-52 19.5t-21 52.5q0 32 22.5 54t53.5 22t51 -20t20 -52zM239 413q0 -31 -21.5 -53.5t-52.5 -22.5t-52 19.5t-21 52.5q0 32 22.5 54t53.5 22t51 -20t20 -52z"/>
<glyph unicode=";" horiz-adv-x="300" glyph-name="semicolon" d="M198 136l-131 -263h-104l116 263h119zM239 413q0 -31 -21.5 -53.5t-52.5 -22.5t-52 19.5t-21 52.5q0 32 22.5 54t53.5 22t51 -20t20 -52z"/>
<glyph unicode="&lt;" horiz-adv-x="666" glyph-name="less" d="M586 42l-506 225v72l506 225v-110l-338 -151l338 -151v-110z"/>
<glyph unicode="=" horiz-adv-x="666" glyph-name="equal" d="M80 444h506v-102h-506v102zM80 264h506v-102h-506v102z"/>
<glyph unicode="&gt;" horiz-adv-x="666" glyph-name="greater" d="M80 564l506 -225v-72l-506 -225v110l338 151l-338 151v110z"/>
<glyph unicode="?" horiz-adv-x="517" glyph-name="question" d="M402 355q-49 -35 -67 -57t-24 -64l-4 -26h-115l6 39q7 48 27.5 79.5t65.5 67.5l52 41q20 15 32 26.5t23.5 32.5t11.5 45q0 80 -89 80q-46 0 -76.5 -30t-40.5 -75l-113 19q18 83 84 138t160 55q87 0 142.5 -42.5t55.5 -135.5q0 -59 -31 -102t-100 -91zM309 72 q0 -31 -21.5 -53.5t-52.5 -22.5t-52 19.5t-21 52.5q0 32 22.5 54t53.5 22t51 -20t20 -52z"/>
<glyph unicode="@" horiz-adv-x="800" glyph-name="at" d="M545 160q-40 0 -60.5 19t-16.5 48h-4q-47 -67 -125 -67q-58 0 -91.5 31.5t-33.5 86.5q0 62 29 123.5t83.5 104.5t118.5 43q38 0 65 -16t31 -39h1l15 40h88l-73 -189q-21 -54 -21 -74q0 -18 5.5 -24t21.5 -6q51 0 87 61.5t36 143.5q0 93 -64.5 146.5t-169.5 53.5 q-151 0 -243.5 -103.5t-92.5 -244.5q0 -111 71.5 -173.5t192.5 -62.5q134 0 242 92l43 -59q-115 -113 -298 -113q-164 0 -256.5 85t-92.5 225q0 178 124 306t309 128q151 0 238.5 -74t87.5 -203q0 -125 -72.5 -207t-174.5 -82zM494 405q0 63 -57 63q-44 0 -84 -54.5 t-40 -113.5q0 -58 55 -58q50 0 88 54t38 109z"/>
<glyph unicode="A" horiz-adv-x="668" glyph-name="A" d="M623 0h-131l-29 163h-303l-101 -163h-146l462 708h107zM446 269l-47 297l-179 -297h226z"/>
<glyph unicode="B" horiz-adv-x="646" glyph-name="B" d="M396 708q84 0 145 -38t61 -117q0 -69 -42 -116t-114 -65v-2q59 -9 95.5 -49.5t36.5 -101.5q0 -105 -82.5 -162t-219.5 -57h-251l125 708h246zM365 606h-112l-34 -189h128q51 0 91.5 27t40.5 82q0 80 -114 80zM334 314h-134l-36 -210h123q73 0 120 29.5t47 91.5 q0 42 -31.5 65.5t-88.5 23.5z"/>
<glyph unicode="C" horiz-adv-x="681" glyph-name="C" d="M566 181l79 -70q-102 -129 -281 -129q-142 0 -229 84t-87 220q0 184 120.5 312t296.5 128q77 0 142.5 -30t98.5 -78l-97 -73q-19 30 -57.5 52.5t-90.5 22.5q-122 0 -203.5 -96.5t-81.5 -221.5q0 -91 54 -151.5t149 -60.5q114 0 187 91z"/>
<glyph unicode="D" horiz-adv-x="757" glyph-name="D" d="M25 0l125 708h242q62 0 119 -17t105 -51t77 -93t29 -135q0 -185 -122 -298.5t-310 -113.5h-265zM253 603l-87 -495h129q140 0 219.5 84.5t79.5 203.5q0 90 -59 148.5t-173 58.5h-109z"/>
<glyph unicode="E" horiz-adv-x="584" glyph-name="E" d="M500 0h-475l125 708h446l-19 -108h-326l-32 -183h311l-19 -104h-310l-36 -203h354z"/>
<glyph unicode="F" horiz-adv-x="556" glyph-name="F" d="M569 600h-315l-35 -196h296l-18 -104h-296l-53 -300h-123l125 708h438z"/>
<glyph unicode="G" horiz-adv-x="740" glyph-name="G" d="M393 90q78 2 129 27l31 180h-152l20 107h271l-63 -366q-112 -56 -254 -56q-147 0 -237 84t-90 220q0 184 120.5 312t296.5 128q80 0 146 -27.5t105 -80.5l-97 -73q-55 75 -158 75q-122 0 -203.5 -96.5t-81.5 -221.5q0 -94 58 -153t159 -59z"/>
<glyph unicode="H" horiz-adv-x="729" glyph-name="H" d="M596 0h-123l55 315h-324l-56 -315h-123l125 708h123l-51 -287h325l51 287h123z"/>
<glyph unicode="I" horiz-adv-x="291" glyph-name="I" d="M148 0h-123l125 708h123z"/>
<glyph unicode="J" horiz-adv-x="500" glyph-name="J" d="M411 228q-7 -38 -15.5 -68t-26.5 -65t-42 -58.5t-63.5 -39t-89.5 -15.5q-83 0 -136 42.5t-62 112.5l115 33q4 -34 25.5 -56.5t54.5 -22.5q54 0 79.5 36t37.5 105l84 476h124z"/>
<glyph unicode="K" horiz-adv-x="646" glyph-name="K" d="M612 0h-161l-239 356h-3l-62 -356h-122l125 708h122l-56 -314h3l319 314h166l-367 -334z"/>
<glyph unicode="L" horiz-adv-x="511" glyph-name="L" d="M451 0h-426l125 708h123l-106 -598h303z"/>
<glyph unicode="M" horiz-adv-x="920" glyph-name="M" d="M788 0h-122l102 571h-3l-319 -571h-86l-115 571h-2l-101 -571h-117l125 708h192l96 -507h2l277 507h195z"/>
<glyph unicode="N" horiz-adv-x="788" glyph-name="N" d="M632 0h-153l-232 550h-2l-97 -550h-123l125 708h160l228 -533h2l94 533h123z"/>
<glyph unicode="O" horiz-adv-x="829" glyph-name="O" d="M459 726q152 0 243.5 -82.5t91.5 -224.5q0 -119 -52 -219t-145 -159t-208 -59q-157 0 -249 82.5t-92 224.5q0 182 118.5 309.5t292.5 127.5zM389 90q127 0 202.5 95t75.5 223q0 91 -57 151.5t-157 60.5q-123 0 -200.5 -96t-77.5 -222q0 -91 57 -151.5t157 -60.5z"/>
<glyph unicode="P" horiz-adv-x="609" glyph-name="P" d="M363 708q115 0 178 -49t63 -137q0 -116 -79.5 -172t-218.5 -56h-107l-52 -294h-122l125 708h213zM311 398q169 0 169 111q0 53 -35.5 74t-100.5 21h-90l-37 -206h94z"/>
<glyph unicode="Q" horiz-adv-x="819" glyph-name="Q" d="M776 429q0 -218 -167 -327v-2h172l-18 -100h-390q-146 0 -235.5 81t-89.5 219q0 179 117 302.5t286 123.5q147 0 236 -80t89 -217zM650 416q0 89 -53 146.5t-147 57.5q-121 0 -198.5 -92.5t-77.5 -214.5q0 -88 54 -146.5t148 -58.5q117 0 195.5 92.5t78.5 215.5z"/>
<glyph unicode="R" horiz-adv-x="624" glyph-name="R" d="M418 316l147 -316h-139l-134 302h-94l-52 -302h-121l125 708h210q116 0 180 -48.5t64 -134.5q0 -83 -49.5 -136.5t-136.5 -72.5zM308 403q169 0 169 109q0 50 -35 71t-101 21h-89l-36 -201h92z"/>
<glyph unicode="S" horiz-adv-x="574" glyph-name="S" d="M561 634l-90 -72q-40 62 -123 62q-47 0 -88.5 -27.5t-41.5 -81.5q0 -35 24.5 -57t73.5 -40q98 -36 145.5 -84.5t47.5 -125.5t-42 -130t-101.5 -74.5t-130.5 -21.5q-74 0 -141 29.5t-103 85.5l100 69q20 -36 61 -58t89 -22q57 0 97.5 28t40.5 86q0 44 -33 71t-95 49 q-75 27 -116.5 68.5t-41.5 117.5q0 102 78.5 161t189.5 59q57 0 113 -24t87 -68z"/>
<glyph unicode="T" horiz-adv-x="533" glyph-name="T" d="M588 600h-208l-106 -600h-123l105 600h-210l19 108h542z"/>
<glyph unicode="U" horiz-adv-x="714" glyph-name="U" d="M633 260q-23 -131 -100.5 -204.5t-209.5 -73.5q-122 0 -192.5 59.5t-70.5 161.5q0 32 5 57l79 448h123l-78 -443q-4 -19 -4 -46q0 -56 34.5 -92.5t105.5 -36.5q153 0 185 175l78 443h124z"/>
<glyph unicode="V" horiz-adv-x="641" glyph-name="V" d="M727 708l-430 -708h-114l-115 708h130l71 -548h4l315 548h139z"/>
<glyph unicode="W" horiz-adv-x="985" glyph-name="W" d="M1055 708l-343 -708h-120l-65 535h-2l-268 -535h-120l-66 708h130l35 -524h2l256 524h128l55 -524h2l245 524h131z"/>
<glyph unicode="X" horiz-adv-x="631" glyph-name="X" d="M568 0h-140l-115 281l-232 -281h-154l332 378l-144 330h136l98 -248l202 248h148l-296 -340z"/>
<glyph unicode="Y" horiz-adv-x="575" glyph-name="Y" d="M685 708l-342 -401l-55 -307h-123l54 307l-177 401h138l118 -300l237 300h150z"/>
<glyph unicode="Z" horiz-adv-x="588" glyph-name="Z" d="M510 0h-550l19 111l466 489h-336l19 108h497l-20 -111l-463 -487h388z"/>
<glyph unicode="[" horiz-adv-x="320" glyph-name="bracketleft" d="M159 -156h-190l156 888h191l-14 -77h-90l-129 -734h90z"/>
<glyph unicode="\" horiz-adv-x="389" glyph-name="backslash" d="M3 726l83 32l312 -776l-83 -30z"/>
<glyph unicode="]" horiz-adv-x="320" glyph-name="bracketright" d="M187 -156h-190l13 77h90l130 734h-90l13 77h191z"/>
<glyph unicode="^" horiz-adv-x="666" glyph-name="asciicircum" d="M187 343h-118l223 365h82l223 -365h-118l-147 239z"/>
<glyph unicode="_" horiz-adv-x="500" glyph-name="underscore" d="M500 -75v-75h-500v75h500z"/>
<glyph unicode="`" horiz-adv-x="260" glyph-name="grave" d="M147 708l99 -144h-90l-141 144h132z"/>
<glyph unicode="a" horiz-adv-x="539" glyph-name="a" d="M357 304q3 16 3 31q0 65 -89 65q-72 0 -139 -48l-45 79q86 62 201 62q50 0 89.5 -13t68 -46.5t28.5 -85.5q0 -19 -4 -45l-35 -195q-12 -74 -12 -108h-108q0 27 6 57h-2q-56 -67 -156 -67q-61 0 -106 30t-45 97q0 187 345 187zM346 220h-14q-207 0 -207 -84q0 -60 78 -60 q53 0 90.5 32.5t46.5 81.5z"/>
<glyph unicode="b" horiz-adv-x="638" glyph-name="b" d="M206 403h2q29 42 74.5 66t98.5 24q92 0 147.5 -57t55.5 -150q0 -125 -75 -211.5t-189 -86.5q-55 0 -102 24.5t-70 68.5h-2l-14 -81h-111l133 756h118zM464 272q0 54 -31.5 89.5t-86.5 35.5q-70 0 -119 -56t-49 -133q0 -55 33.5 -90t88.5 -35q73 0 118.5 54.5t45.5 134.5z "/>
<glyph unicode="c" horiz-adv-x="492" glyph-name="c" d="M497 412l-84 -68q-13 22 -40.5 37.5t-58.5 15.5q-73 0 -122 -55.5t-49 -131.5q0 -54 31 -90t91 -36q71 0 123 54l67 -68q-85 -83 -197 -83q-104 0 -167.5 57.5t-63.5 150.5q0 121 82 209.5t211 88.5q126 0 177 -81z"/>
<glyph unicode="d" horiz-adv-x="634" glyph-name="d" d="M461 403l60 353h118l-134 -756h-111l12 76h-3q-60 -88 -173 -88q-92 0 -147.5 57t-55.5 150q0 125 75 211.5t189 86.5q122 0 168 -90h2zM147 209q0 -54 31.5 -89.5t86.5 -35.5q70 0 119 56t49 133q0 55 -33.5 90t-88.5 35q-73 0 -118.5 -54.5t-45.5 -134.5z"/>
<glyph unicode="e" horiz-adv-x="564" glyph-name="e" d="M496 203h-356q-1 -5 -1 -11q0 -47 36.5 -78.5t89.5 -31.5q81 0 137 63l67 -63q-89 -96 -217 -96q-100 0 -162.5 57t-62.5 156q0 125 80 209.5t201 84.5q89 0 144.5 -50t55.5 -142q0 -49 -12 -98zM400 287q2 18 2 25q0 40 -28.5 66.5t-76.5 26.5q-57 0 -97 -37t-49 -81 h249z"/>
<glyph unicode="f" horiz-adv-x="323" glyph-name="f" d="M410 761l-25 -100q-21 7 -41 7q-75 0 -95 -109l-14 -79h113l-17 -94h-111l-68 -386h-114l68 386h-91l16 94h89l14 73q41 215 217 215q35 0 59 -7z"/>
<glyph unicode="g" horiz-adv-x="632" glyph-name="g" d="M463 407h3l12 73h112l-76 -439q-23 -137 -92.5 -209t-207.5 -72q-63 0 -128 23t-103 63l78 85q58 -69 156 -69q82 0 122 43t57 123l8 38h-2q-57 -75 -165 -75q-92 0 -147.5 56.5t-55.5 149.5q0 125 75 210.5t189 85.5q123 0 165 -86zM154 211q0 -54 31.5 -89.5 t86.5 -35.5q70 0 119 56t49 132q0 55 -33.5 90t-88.5 35q-73 0 -118.5 -54t-45.5 -134z"/>
<glyph unicode="h" horiz-adv-x="584" glyph-name="h" d="M461 0h-117l46 264q5 27 5 48q0 81 -79 81q-53 0 -87.5 -38.5t-44.5 -93.5l-46 -261h-117l133 756h118l-61 -344h2q22 35 60 58t88 23q76 0 116.5 -42.5t40.5 -106.5q0 -25 -4 -45z"/>
<glyph unicode="i" horiz-adv-x="267" glyph-name="i" d="M138 0h-117l84 480h118zM262 645q0 -30 -20.5 -51.5t-50.5 -21.5t-50 18.5t-20 50.5q0 31 22 52t51 21t48.5 -19t19.5 -50z"/>
<glyph unicode="j" horiz-adv-x="267" glyph-name="j" d="M133 -32q-8 -47 -20.5 -81t-34.5 -64.5t-59 -46.5t-88 -16q-29 0 -53 6l23 100q13 -4 32 -4q39 0 55.5 26t25.5 76l91 516h118zM262 645q0 -30 -20.5 -51.5t-50.5 -21.5t-50 18.5t-20 50.5q0 31 22 52t51 21t48.5 -19t19.5 -50z"/>
<glyph unicode="k" horiz-adv-x="521" glyph-name="k" d="M481 0h-145l-151 246h-3l-44 -246h-117l133 756h118l-85 -479h3l217 203h154l-255 -223z"/>
<glyph unicode="l" horiz-adv-x="267" glyph-name="l" d="M138 0h-117l133 756h118z"/>
<glyph unicode="m" horiz-adv-x="894" glyph-name="m" d="M87 377q10 50 15 103h110q-2 -24 -9 -75h2q57 88 148 88q57 0 94.5 -26t49.5 -68q66 94 170 94q79 0 120 -42t41 -107q0 -25 -4 -45l-53 -299h-117l46 264q5 27 5 48q0 82 -80 82q-52 0 -86 -39.5t-43 -92.5l-46 -262h-118l51 290q3 15 3 27q0 35 -18.5 56t-55.5 21 q-51 0 -84.5 -38.5t-42.5 -91.5l-47 -264h-117z"/>
<glyph unicode="n" horiz-adv-x="584" glyph-name="n" d="M203 405h2q56 88 156 88q76 0 116.5 -42.5t40.5 -106.5q0 -25 -4 -45l-53 -299h-117l46 264q5 27 5 48q0 81 -79 81q-53 0 -87.5 -38t-43.5 -91l-47 -264h-117l66 377q10 50 15 103h110q-1 -19 -9 -75z"/>
<glyph unicode="o" horiz-adv-x="604" glyph-name="o" d="M259 -13q-101 0 -166.5 58.5t-65.5 150.5q0 122 81 209.5t209 87.5q102 0 167.5 -58t65.5 -150q0 -124 -81 -211t-210 -87zM432 273q0 54 -33.5 89t-89.5 35q-73 0 -119.5 -55.5t-46.5 -133.5q0 -55 32.5 -89.5t89.5 -34.5q74 0 120.5 55t46.5 134z"/>
<glyph unicode="p" horiz-adv-x="635" glyph-name="p" d="M147 76l-53 -316h-118l127 720h111l-12 -77h3q60 88 173 88q92 0 147.5 -57t55.5 -150q0 -125 -75 -211.5t-189 -86.5q-122 0 -168 90h-2zM461 270q0 54 -31.5 89.5t-86.5 35.5q-70 0 -119 -56t-49 -133q0 -55 33.5 -90t88.5 -35q73 0 118.5 54.5t45.5 134.5z"/>
<glyph unicode="q" horiz-adv-x="632" glyph-name="q" d="M405 76h-2q-60 -88 -173 -88q-92 0 -147.5 57t-55.5 150q0 125 75 211.5t189 86.5q54 0 101 -25.5t71 -69.5h2l14 82h111l-126 -720h-118zM147 209q0 -54 31.5 -89.5t86.5 -35.5q70 0 119 56t49 133q0 55 -33.5 90t-88.5 35q-73 0 -118.5 -54.5t-45.5 -134.5z"/>
<glyph unicode="r" horiz-adv-x="339" glyph-name="r" d="M201 400h2q56 93 141 93q17 0 29 -3l-16 -109q-19 5 -36 5q-38 0 -66.5 -14.5t-43 -37.5t-21.5 -41t-10 -36l-45 -257h-117l67 377q10 50 15 103h110q-2 -29 -9 -80z"/>
<glyph unicode="s" horiz-adv-x="444" glyph-name="s" d="M-24 78l91 60q31 -60 110 -60q41 0 65.5 16t24.5 44q0 24 -18 37.5t-64 27.5q-73 23 -104.5 51.5t-31.5 80.5q0 69 59.5 113.5t149.5 44.5q123 0 173 -83l-91 -54q-30 47 -91 47q-35 0 -60 -13.5t-25 -43.5q0 -21 18 -32.5t59 -23.5q71 -20 106 -53.5t35 -90.5 q0 -76 -60 -120t-148 -44q-139 0 -198 96z"/>
<glyph unicode="t" horiz-adv-x="340" glyph-name="t" d="M104 385h-85l17 95h83l24 140h116l-24 -140h108l-17 -95h-106l-42 -226q-3 -15 -3 -28q0 -46 57 -46q22 0 45 7l-7 -89q-32 -13 -73 -13q-140 0 -140 111q0 33 6 61z"/>
<glyph unicode="u" horiz-adv-x="584" glyph-name="u" d="M350 75h-2q-56 -88 -156 -88q-76 0 -116.5 42.5t-40.5 106.5q0 25 4 45l53 299h117l-46 -264q-5 -27 -5 -48q0 -81 79 -81q53 0 87.5 38t43.5 91l47 264h117l-66 -377q-10 -50 -15 -103h-110q1 19 9 75z"/>
<glyph unicode="v" horiz-adv-x="502" glyph-name="v" d="M534 480l-285 -480h-126l-94 480h123l56 -352h2l200 352h124z"/>
<glyph unicode="w" horiz-adv-x="785" glyph-name="w" d="M820 480l-261 -480h-120l-43 339h-2l-179 -339h-120l-66 480h123l33 -345h2l172 345h123l39 -345h2l174 345h123z"/>
<glyph unicode="x" horiz-adv-x="513" glyph-name="x" d="M451 0h-133l-89 172l-153 -172h-149l247 255l-129 225h129l78 -150l133 150h144l-220 -231z"/>
<glyph unicode="y" horiz-adv-x="506" glyph-name="y" d="M543 480l-340 -584q-41 -72 -80 -104t-104 -32q-33 0 -61 7l15 102q21 -7 44 -7q31 0 49.5 16.5t42.5 58.5l36 62l-108 481h126l62 -352h2l192 352h124z"/>
<glyph unicode="z" horiz-adv-x="480" glyph-name="z" d="M392 0h-412l18 103l313 283h-244l16 94h387l-18 -103l-311 -281h268z"/>
<glyph unicode="{" horiz-adv-x="320" glyph-name="braceleft" d="M187 -156h-72q-47 0 -77 26t-30 75q0 15 3 31l34 190q7 42 -11 60.5t-45 18.5l15 86q28 0 52 16.5t31 55.5l34 197q11 65 54 98.5t97 33.5h72l-14 -83h-55q-27 0 -38.5 -16.5t-17.5 -44.5l-33 -187q-9 -52 -46 -80t-71 -32v-2q30 -3 55 -23t25 -66q0 -14 -3 -29l-32 -181 q-12 -61 33 -61h55z"/>
<glyph unicode="|" horiz-adv-x="222" glyph-name="bar" d="M60 750h102v-1000h-102v1000z"/>
<glyph unicode="}" horiz-adv-x="320" glyph-name="braceright" d="M308 245q-27 0 -51.5 -18t-31.5 -61l-34 -190q-11 -64 -53.5 -98t-96.5 -34h-73l15 83h55q45 0 55 61l32 181q6 33 20.5 57t33.5 36.5t34 18t30 6.5l1 2q-33 4 -60 32t-18 80l33 187q5 28 -1 44.5t-33 16.5h-54l14 83h73q46 0 76 -26t30 -75q0 -15 -3 -31l-34 -197 q-7 -38 11 -55t45 -17z"/>
<glyph unicode="~" horiz-adv-x="666" glyph-name="asciitilde" d="M345 354q40 -25 55.5 -31t38.5 -6q45 0 78 63l77 -65q-62 -102 -153 -102q-58 0 -121 40q-58 36 -93 36q-44 0 -78 -63l-77 65q62 103 153 103q59 0 120 -40z"/>
<glyph unicode=" " horiz-adv-x="250" glyph-name="uni00A0"/>
<glyph unicode="¡" horiz-adv-x="295" glyph-name="exclamdown" d="M78 273h117l-86 -487h-117zM83 422q0 31 21.5 53.5t52.5 22.5t52 -19.5t21 -52.5q0 -32 -22.5 -54t-53.5 -22t-51 20t-20 52z"/>
<glyph unicode="¢" glyph-name="cent" d="M391 491q103 -10 146 -79l-84 -68q-24 41 -79 51l-55 -311q60 5 109 54l67 -68q-83 -82 -193 -83l-12 -70h-54l14 74q-84 13 -133.5 67.5t-49.5 136.5q0 115 75.5 201.5t195.5 95.5l11 66h54zM321 394q-60 -10 -99 -63t-39 -121q0 -46 20 -80t63 -42z"/>
<glyph unicode="£" glyph-name="sterling" d="M624 666l-72 -81q-33 43 -100 43q-114 0 -140 -151l-14 -78h166l-15 -83h-164l-37 -211h265l-19 -105h-482l18 105h98l38 211h-98l14 83h96l15 83q6 33 17 64t32 65t49.5 58.5t71.5 40.5t96 16q107 0 165 -60z"/>
<glyph unicode="¤" horiz-adv-x="920" glyph-name="currency" d="M687 462q45 -66 45 -153q0 -93 -48 -158l93 -93l-22 -22t-25.5 -26t-22.5 -22q-32 31 -96 95q-65 -43 -150 -43q-81 0 -151 45q-32 -33 -98 -97l-22 22t-25.5 26t-22.5 22q16 16 47.5 48t47.5 48q-45 62 -45 155q0 87 43 150l-93 93q24 23 71 70q16 -16 47.5 -47 t46.5 -46q68 46 154 46q88 0 153 -45l92 92q24 -23 71 -70zM461 459q-64 0 -104.5 -44t-40.5 -106q0 -64 40.5 -108t104.5 -44q65 0 105 44t40 108q0 62 -40.5 106t-104.5 44z"/>
<glyph unicode="¥" glyph-name="yen" d="M657 708l-244 -320h140l-14 -77h-177l-14 -78h177l-13 -77h-175l-27 -156h-115l27 156h-178l13 77h176l13 78h-175l13 77h148l-142 320h130l106 -289l199 289h132z"/>
<glyph unicode="¦" horiz-adv-x="222" glyph-name="brokenbar" d="M60 675h102v-350h-102v350zM60 175h102v-350h-102v350z"/>
<glyph unicode="§" glyph-name="section" d="M589 642l-89 -69q-39 57 -115 57q-37 0 -68.5 -18.5t-31.5 -58.5q0 -31 23 -48.5t90 -46.5q66 -29 101 -65t35 -100q0 -105 -112 -148q46 -39 46 -95q0 -50 -20 -89t-53.5 -61t-72 -33t-79.5 -11q-70 0 -138.5 29.5t-92.5 83.5l100 57q14 -31 52 -49.5t77 -18.5 q102 0 102 71q0 39 -27.5 60t-106.5 54q-59 25 -91 59t-32 93q0 56 35.5 96.5t84.5 55.5q-43 32 -43 94q0 47 21.5 84t56 58.5t73.5 32t78 10.5q62 0 115 -22t82 -62zM262 234l97 -43q67 20 67 82q0 54 -70 88l-84 41q-36 -8 -56.5 -32.5t-20.5 -54.5q0 -31 17.5 -49 t49.5 -32z"/>
<glyph unicode="¨" horiz-adv-x="260" glyph-name="dieresis" d="M158 646q0 -30 -19.5 -50.5t-49.5 -20.5t-49 18t-19 49t21 51t50 20t47.5 -18t18.5 -49zM356 646q0 -30 -19.5 -50.5t-49.5 -20.5t-49 18t-19 49t21 51t50 20t47.5 -18t18.5 -49z"/>
<glyph unicode="©" horiz-adv-x="800" glyph-name="copyright" d="M577 506l-63 -63q-15 18 -41 30t-55 12q-58 0 -91 -39t-33 -93q0 -55 35 -95t96 -40q60 0 93 38l58 -68q-54 -60 -158 -60q-99 0 -164.5 59.5t-65.5 163.5q0 102 66 163t164 61q48 0 91 -18.5t68 -50.5zM20 353q0 157 111.5 267t269.5 110q157 0 268 -110t111 -267 q0 -156 -111 -265.5t-268 -109.5q-158 0 -269.5 109.5t-111.5 265.5zM80 353q0 -132 94 -225.5t227 -93.5q132 0 225.5 93.5t93.5 225.5q0 133 -93.5 227t-225.5 94q-133 0 -227 -94t-94 -227z"/>
<glyph unicode="ª" horiz-adv-x="380" glyph-name="ordfeminine" d="M280 559h-7q-112 0 -112 -44q0 -33 42 -33q28 0 48 17.5t25 43.5zM268 461h-2q-29 -37 -84 -37q-44 0 -68.5 21.5t-24.5 56.5q0 59 48.5 85.5t147.5 26.5q2 6 2 12q0 19 -11 26.5t-36 7.5q-39 0 -77 -27l-30 51q55 39 117 39q55 0 82.5 -25t27.5 -64q0 -10 -4 -32 l-18 -106q-5 -26 -5 -65h-68q0 11 3 30z"/>
<glyph unicode="«" horiz-adv-x="518" glyph-name="guillemotleft" d="M21 247l191 224l67 -54l-149 -177l85 -175l-80 -46zM240 247l191 224l67 -54l-149 -177l85 -175l-80 -46z"/>
<glyph unicode="¬" horiz-adv-x="666" glyph-name="logicalnot" d="M502 147v195h-440v102h542v-297h-102z"/>
<glyph unicode="­" horiz-adv-x="320" glyph-name="uni00AD" d="M260 196h-239l18 100h239z"/>
<glyph unicode="®" horiz-adv-x="600" glyph-name="registered" d="M568 493q0 -93 -66.5 -158.5t-160.5 -65.5q-95 0 -162 65.5t-67 158.5q0 94 67 160.5t162 66.5q94 0 160.5 -66.5t66.5 -160.5zM532 493q0 80 -56 136.5t-135 56.5q-80 0 -136.5 -56.5t-56.5 -136.5q0 -79 56.5 -135t136.5 -56q79 0 135 56t56 135zM472 368h-83l-50 96 h-29v-96h-71v260h112q44 0 75.5 -19.5t31.5 -62.5q0 -26 -14.5 -44.5t-37.5 -26.5zM383 545q0 12 -11 18.5t-24 6.5h-38v-54h38q14 0 24.5 8.5t10.5 20.5z"/>
<glyph unicode="¯" horiz-adv-x="260" glyph-name="macron" d="M339 595h-317l13 77h318z"/>
<glyph unicode="°" horiz-adv-x="400" glyph-name="degree" d="M74 560q0 66 47 113t113 47t113 -47t47 -113t-47 -113t-113 -47t-113 47t-47 113zM152 560q0 -34 24 -58t58 -24t58 24t24 58t-24 58t-58 24t-58 -24t-24 -58z"/>
<glyph unicode="±" horiz-adv-x="666" glyph-name="plusminus" d="M286 431v143h96v-143h204v-102h-204v-143h-96v143h-206v102h206zM80 32v102h506v-102h-506z"/>
<glyph unicode="²" horiz-adv-x="400" glyph-name="twosuperior" d="M108 607q20 54 60 82t92 28q60 0 97 -31t37 -84q0 -46 -21.5 -77t-76.5 -74l-114 -89h167l-15 -79h-279l14 77l184 151q58 48 58 86q0 47 -55 47q-51 0 -70 -59z"/>
<glyph unicode="³" horiz-adv-x="400" glyph-name="threesuperior" d="M198 540q86 0 86 67q0 42 -47 42q-24 0 -39 -9.5t-29 -35.5l-65 38q47 79 139 79q58 0 91.5 -33.5t33.5 -78.5q0 -39 -22.5 -66.5t-57.5 -35.5q30 -10 47 -33.5t17 -52.5q0 -69 -45 -106.5t-112 -37.5q-55 0 -92 26t-52 72l80 24q13 -47 65 -47q34 0 52 17t18 45 q0 29 -21.5 44t-57.5 15h-23l11 67h23z"/>
<glyph unicode="´" horiz-adv-x="260" glyph-name="acute" d="M385 708l-165 -144h-93l125 144h133z"/>
<glyph unicode="µ" horiz-adv-x="574" glyph-name="mu" d="M68 480h120v-243q0 -26 2.5 -45.5t10 -44t26.5 -38t49 -13.5q56 0 83 34.5t27 87.5v262h120v-480h-114v77h-2q-41 -89 -137 -89q-45 0 -65 24v-240h-120v708z"/>
<glyph unicode="¶" horiz-adv-x="600" glyph-name="paragraph" d="M456 -126h-89l135 763h-108l-135 -763h-89l82 463q-86 0 -136 41.5t-50 109.5q0 28 6 55t24.5 58t47 54t78 38t113.5 15h268z"/>
<glyph unicode="·" horiz-adv-x="260" glyph-name="periodcentered" d="M201 297q0 -31 -21.5 -53.5t-52.5 -22.5t-52 19.5t-21 52.5q0 32 22.5 54t53.5 22t51 -20t20 -52z"/>
<glyph unicode="¸" horiz-adv-x="260" glyph-name="cedilla" d="M176 -138q0 -53 -44.5 -77.5t-99.5 -24.5q-64 0 -109 26l27 48q35 -20 78 -20q65 0 65 41q0 36 -47 36q-20 0 -40 -6l-18 25l78 90h57l-57 -65q9 2 20 2q34 0 62 -18t28 -57z"/>
<glyph unicode="¹" horiz-adv-x="400" glyph-name="onesuperior" d="M256 279h-93l57 319l-84 -61l-41 61l155 110h81z"/>
<glyph unicode="º" horiz-adv-x="380" glyph-name="ordmasculine" d="M302 591q0 27 -16.5 43.5t-44.5 16.5q-35 0 -57.5 -27t-22.5 -66q0 -27 15.5 -43.5t43.5 -16.5q36 0 59 27.5t23 65.5zM215 426q-62 0 -99 35.5t-37 87.5q0 77 49 125t120 48q60 0 97.5 -34t37.5 -89q0 -79 -49 -126t-119 -47z"/>
<glyph unicode="»" horiz-adv-x="518" glyph-name="guillemotright" d="M478 243l-191 -224l-67 54l149 177l-85 175l80 46zM257 243l-191 -224l-67 54l149 177l-85 175l80 46z"/>
<glyph unicode="¼" horiz-adv-x="900" glyph-name="onequarter" d="M785 89h-55l-15 -89h-85l15 89h-192l12 70l221 270h101l-46 -266h58zM656 163l29 156h-5l-122 -156h98zM256 279h-93l57 319l-84 -61l-41 61l155 110h81zM743 701l-547 -734l-62 39l547 734z"/>
<glyph unicode="½" horiz-adv-x="900" glyph-name="onehalf" d="M256 279h-93l57 319l-84 -61l-41 61l155 110h81zM548 324q20 54 60 82t92 28q60 0 97 -31t37 -84q0 -46 -21.5 -77t-76.5 -74l-114 -89h167l-15 -79h-279l14 77l184 151q58 48 58 86q0 47 -55 47q-51 0 -70 -59zM743 701l-547 -734l-62 39l547 734z"/>
<glyph unicode="¾" horiz-adv-x="900" glyph-name="threequarters" d="M785 89h-55l-15 -89h-85l15 89h-192l12 70l221 270h101l-46 -266h58zM656 163l29 156h-5l-122 -156h98zM743 701l-547 -734l-62 39l547 734zM198 540q86 0 86 67q0 42 -47 42q-24 0 -39 -9.5t-29 -35.5l-65 38q47 79 139 79q58 0 91.5 -33.5t33.5 -78.5 q0 -39 -22.5 -66.5t-57.5 -35.5q30 -10 47 -33.5t17 -52.5q0 -69 -45 -106.5t-112 -37.5q-55 0 -92 26t-52 72l80 24q13 -47 65 -47q34 0 52 17t18 45q0 29 -21.5 44t-57.5 15h-23l11 67h23z"/>
<glyph unicode="¿" horiz-adv-x="517" glyph-name="questiondown" d="M107 140q49 35 67 57t24 64l4 26h115l-6 -39q-7 -48 -27.5 -79.5t-65.5 -67.5l-52 -41q-20 -15 -32 -26.5t-23.5 -32.5t-11.5 -45q0 -80 89 -80q46 0 76.5 30t40.5 75l113 -19q-18 -83 -84 -138t-160 -55q-87 0 -142.5 42.5t-55.5 135.5q0 59 31 102t100 91zM200 423 q0 31 21.5 53.5t52.5 22.5t52 -19.5t21 -52.5q0 -32 -22.5 -54t-53.5 -22t-51 20t-20 52z"/>
<glyph unicode="À" horiz-adv-x="668" glyph-name="Agrave" d="M623 0h-131l-29 163h-303l-101 -163h-146l462 708h107zM446 269l-47 297l-179 -297h226zM375 908l99 -144h-90l-141 144h132z"/>
<glyph unicode="Á" horiz-adv-x="668" glyph-name="Aacute" d="M623 0h-131l-29 163h-303l-101 -163h-146l462 708h107zM446 269l-47 297l-179 -297h226zM650 908l-165 -144h-93l125 144h133z"/>
<glyph unicode="Â" horiz-adv-x="668" glyph-name="Acircumflex" d="M623 0h-131l-29 163h-303l-101 -163h-146l462 708h107zM446 269l-47 297l-179 -297h226zM615 764h-108l-54 91l-86 -91h-112l140 144h132z"/>
<glyph unicode="Ã" horiz-adv-x="668" glyph-name="Atilde" d="M623 0h-131l-29 163h-303l-101 -163h-146l462 708h107zM446 269l-47 297l-179 -297h226zM317 768h-66q43 125 135 125q39 0 75 -18q40 -19 62 -19q33 0 53 44h66q-43 -125 -134 -125q-33 0 -69 17q-44 21 -68 21q-31 0 -54 -45z"/>
<glyph unicode="Ä" horiz-adv-x="668" glyph-name="Adieresis" d="M623 0h-131l-29 163h-303l-101 -163h-146l462 708h107zM446 269l-47 297l-179 -297h226zM416 846q0 -30 -19.5 -50.5t-49.5 -20.5t-49 18t-19 49t21 51t50 20t47.5 -18t18.5 -49zM614 846q0 -30 -19.5 -50.5t-49.5 -20.5t-49 18t-19 49t21 51t50 20t47.5 -18t18.5 -49z "/>
<glyph unicode="Å" horiz-adv-x="668" glyph-name="Aring" d="M623 0h-131l-29 163h-303l-101 -163h-146l462 708h107zM446 269l-47 297l-179 -297h226zM437 753q-39 0 -64.5 24.5t-25.5 61.5q0 49 32.5 83t82.5 34q39 0 64 -24t25 -61q0 -50 -32.5 -84t-81.5 -34zM502 862q0 20 -12.5 35t-32.5 15q-27 0 -44 -19t-17 -48 q0 -20 12 -34t32 -14q27 0 44.5 18.5t17.5 46.5z"/>
<glyph unicode="Æ" horiz-adv-x="1033" glyph-name="AE" d="M1045 708l-19 -108h-326l-32 -183h311l-19 -104h-310l-36 -203h354l-19 -110h-474l32 187h-255l-142 -187h-142l553 708h524zM525 289l55 311h-15l-235 -311h195z"/>
<glyph unicode="Ç" horiz-adv-x="681" glyph-name="Ccedilla" d="M448 -138q0 -53 -44.5 -77.5t-99.5 -24.5q-64 0 -109 26l27 48q35 -20 78 -20q65 0 65 41q0 36 -47 36q-20 0 -40 -6l-18 25l64 74q-125 12 -200.5 94t-75.5 208q0 184 120.5 312t296.5 128q77 0 142.5 -30t98.5 -78l-97 -73q-19 30 -57.5 52.5t-90.5 22.5 q-122 0 -203.5 -96.5t-81.5 -221.5q0 -91 54 -151.5t149 -60.5q114 0 187 91l79 -70q-97 -123 -266 -128l-41 -48q9 2 20 2q34 0 62 -18t28 -57z"/>
<glyph unicode="È" horiz-adv-x="584" glyph-name="Egrave" d="M500 0h-475l125 708h446l-19 -108h-326l-32 -183h311l-19 -104h-310l-36 -203h354zM361 908l99 -144h-90l-141 144h132z"/>
<glyph unicode="É" horiz-adv-x="584" glyph-name="Eacute" d="M500 0h-475l125 708h446l-19 -108h-326l-32 -183h311l-19 -104h-310l-36 -203h354zM574 908l-165 -144h-93l125 144h133z"/>
<glyph unicode="Ê" horiz-adv-x="584" glyph-name="Ecircumflex" d="M500 0h-475l125 708h446l-19 -108h-326l-32 -183h311l-19 -104h-310l-36 -203h354zM564 764h-108l-54 91l-86 -91h-112l140 144h132z"/>
<glyph unicode="Ë" horiz-adv-x="584" glyph-name="Edieresis" d="M500 0h-475l125 708h446l-19 -108h-326l-32 -183h311l-19 -104h-310l-36 -203h354zM360 846q0 -30 -19.5 -50.5t-49.5 -20.5t-49 18t-19 49t21 51t50 20t47.5 -18t18.5 -49zM558 846q0 -30 -19.5 -50.5t-49.5 -20.5t-49 18t-19 49t21 51t50 20t47.5 -18t18.5 -49z"/>
<glyph unicode="Ì" horiz-adv-x="291" glyph-name="Igrave" d="M148 0h-123l125 708h123zM178 908l99 -144h-90l-141 144h132z"/>
<glyph unicode="Í" horiz-adv-x="291" glyph-name="Iacute" d="M148 0h-123l125 708h123zM415 908l-165 -144h-93l125 144h133z"/>
<glyph unicode="Î" horiz-adv-x="291" glyph-name="Icircumflex" d="M148 0h-123l125 708h123zM400 764h-108l-54 91l-86 -91h-112l140 144h132z"/>
<glyph unicode="Ï" horiz-adv-x="291" glyph-name="Idieresis" d="M148 0h-123l125 708h123zM201 846q0 -30 -19.5 -50.5t-49.5 -20.5t-49 18t-19 49t21 51t50 20t47.5 -18t18.5 -49zM399 846q0 -30 -19.5 -50.5t-49.5 -20.5t-49 18t-19 49t21 51t50 20t47.5 -18t18.5 -49z"/>
<glyph unicode="Ð" horiz-adv-x="757" glyph-name="Eth" d="M82 325h-64l15 83h64l53 300h242q62 0 119 -17t105 -51t77 -93t29 -135q0 -185 -122 -298.5t-310 -113.5h-265zM219 408h210l-15 -83h-210l-38 -217h129q140 0 219.5 84.5t79.5 203.5q0 90 -59 148.5t-173 58.5h-109z"/>
<glyph unicode="Ñ" horiz-adv-x="788" glyph-name="Ntilde" d="M632 0h-153l-232 550h-2l-97 -550h-123l125 708h160l228 -533h2l94 533h123zM345 768h-66q43 125 135 125q39 0 75 -18q40 -19 62 -19q33 0 53 44h66q-43 -125 -134 -125q-33 0 -69 17q-44 21 -68 21q-31 0 -54 -45z"/>
<glyph unicode="Ò" horiz-adv-x="829" glyph-name="Ograve" d="M459 726q152 0 243.5 -82.5t91.5 -224.5q0 -119 -52 -219t-145 -159t-208 -59q-157 0 -249 82.5t-92 224.5q0 182 118.5 309.5t292.5 127.5zM389 90q127 0 202.5 95t75.5 223q0 91 -57 151.5t-157 60.5q-123 0 -200.5 -96t-77.5 -222q0 -91 57 -151.5t157 -60.5zM478 908 l99 -144h-90l-141 144h132z"/>
<glyph unicode="Ó" horiz-adv-x="829" glyph-name="Oacute" d="M459 726q152 0 243.5 -82.5t91.5 -224.5q0 -119 -52 -219t-145 -159t-208 -59q-157 0 -249 82.5t-92 224.5q0 182 118.5 309.5t292.5 127.5zM389 90q127 0 202.5 95t75.5 223q0 91 -57 151.5t-157 60.5q-123 0 -200.5 -96t-77.5 -222q0 -91 57 -151.5t157 -60.5zM654 908 l-165 -144h-93l125 144h133z"/>
<glyph unicode="Ô" horiz-adv-x="829" glyph-name="Ocircumflex" d="M459 726q152 0 243.5 -82.5t91.5 -224.5q0 -119 -52 -219t-145 -159t-208 -59q-157 0 -249 82.5t-92 224.5q0 182 118.5 309.5t292.5 127.5zM389 90q127 0 202.5 95t75.5 223q0 91 -57 151.5t-157 60.5q-123 0 -200.5 -96t-77.5 -222q0 -91 57 -151.5t157 -60.5zM681 764 h-108l-54 91l-86 -91h-112l140 144h132z"/>
<glyph unicode="Õ" horiz-adv-x="829" glyph-name="Otilde" d="M459 726q152 0 243.5 -82.5t91.5 -224.5q0 -119 -52 -219t-145 -159t-208 -59q-157 0 -249 82.5t-92 224.5q0 182 118.5 309.5t292.5 127.5zM389 90q127 0 202.5 95t75.5 223q0 91 -57 151.5t-157 60.5q-123 0 -200.5 -96t-77.5 -222q0 -91 57 -151.5t157 -60.5zM369 768 h-66q43 125 135 125q39 0 75 -18q40 -19 62 -19q33 0 53 44h66q-43 -125 -134 -125q-33 0 -69 17q-44 21 -68 21q-31 0 -54 -45z"/>
<glyph unicode="Ö" horiz-adv-x="829" glyph-name="Odieresis" d="M459 726q152 0 243.5 -82.5t91.5 -224.5q0 -119 -52 -219t-145 -159t-208 -59q-157 0 -249 82.5t-92 224.5q0 182 118.5 309.5t292.5 127.5zM389 90q127 0 202.5 95t75.5 223q0 91 -57 151.5t-157 60.5q-123 0 -200.5 -96t-77.5 -222q0 -91 57 -151.5t157 -60.5zM470 846 q0 -30 -19.5 -50.5t-49.5 -20.5t-49 18t-19 49t21 51t50 20t47.5 -18t18.5 -49zM668 846q0 -30 -19.5 -50.5t-49.5 -20.5t-49 18t-19 49t21 51t50 20t47.5 -18t18.5 -49z"/>
<glyph unicode="×" horiz-adv-x="666" glyph-name="multiply" d="M150 557l183 -183l182 182l70 -70l-181 -181l185 -186l-74 -74l-183 181l-181 -181l-74 73l185 182l-184 186z"/>
<glyph unicode="Ø" horiz-adv-x="829" glyph-name="Oslash" d="M688 656l95 88l42 -43l-95 -87q64 -78 64 -195q0 -119 -52 -219t-145 -159t-208 -59q-158 0 -252 86l-95 -86l-42 43l97 89q-49 72 -49 175q0 182 118.5 309.5t292.5 127.5q137 0 229 -70zM640 528l-413 -378q58 -64 161 -64q129 0 205.5 96.5t76.5 226.5q0 67 -30 119z M602 575q-60 50 -148 50q-84 0 -150.5 -47.5t-100 -121t-33.5 -156.5q0 -57 21 -100z"/>
<glyph unicode="Ù" horiz-adv-x="714" glyph-name="Ugrave" d="M633 260q-23 -131 -100.5 -204.5t-209.5 -73.5q-122 0 -192.5 59.5t-70.5 161.5q0 32 5 57l79 448h123l-78 -443q-4 -19 -4 -46q0 -56 34.5 -92.5t105.5 -36.5q153 0 185 175l78 443h124zM397 908l99 -144h-90l-141 144h132z"/>
<glyph unicode="Ú" horiz-adv-x="714" glyph-name="Uacute" d="M633 260q-23 -131 -100.5 -204.5t-209.5 -73.5q-122 0 -192.5 59.5t-70.5 161.5q0 32 5 57l79 448h123l-78 -443q-4 -19 -4 -46q0 -56 34.5 -92.5t105.5 -36.5q153 0 185 175l78 443h124zM620 908l-165 -144h-93l125 144h133z"/>
<glyph unicode="Û" horiz-adv-x="714" glyph-name="Ucircumflex" d="M633 260q-23 -131 -100.5 -204.5t-209.5 -73.5q-122 0 -192.5 59.5t-70.5 161.5q0 32 5 57l79 448h123l-78 -443q-4 -19 -4 -46q0 -56 34.5 -92.5t105.5 -36.5q153 0 185 175l78 443h124zM614 764h-108l-54 91l-86 -91h-112l140 144h132z"/>
<glyph unicode="Ü" horiz-adv-x="714" glyph-name="Udieresis" d="M633 260q-23 -131 -100.5 -204.5t-209.5 -73.5q-122 0 -192.5 59.5t-70.5 161.5q0 32 5 57l79 448h123l-78 -443q-4 -19 -4 -46q0 -56 34.5 -92.5t105.5 -36.5q153 0 185 175l78 443h124zM411 846q0 -30 -19.5 -50.5t-49.5 -20.5t-49 18t-19 49t21 51t50 20t47.5 -18 t18.5 -49zM609 846q0 -30 -19.5 -50.5t-49.5 -20.5t-49 18t-19 49t21 51t50 20t47.5 -18t18.5 -49z"/>
<glyph unicode="Ý" horiz-adv-x="575" glyph-name="Yacute" d="M685 708l-342 -401l-55 -307h-123l54 307l-177 401h138l118 -300l237 300h150zM566 908l-165 -144h-93l125 144h133z"/>
<glyph unicode="Þ" horiz-adv-x="609" glyph-name="Thorn" d="M339 570q115 0 178 -49t63 -137q0 -110 -80.5 -168.5t-217.5 -58.5h-107l-28 -157h-122l125 708h122l-24 -138h91zM287 261q169 0 169 111q0 94 -136 94h-90l-37 -205h94z"/>
<glyph unicode="ß" horiz-adv-x="627" glyph-name="germandbls" d="M292 -12q-52 0 -92 11l18 99q27 -10 69 -10q74 0 121 42.5t47 115.5q0 54 -39.5 87t-94.5 33h-13l18 100h14q48 0 83.5 28.5t35.5 83.5q0 35 -25 61t-68 26q-110 0 -139 -162l-89 -503h-118l90 509q46 259 263 259q87 0 145 -48.5t58 -129.5q0 -65 -37.5 -108t-95.5 -58 v-2q60 -16 96.5 -63.5t36.5 -110.5q0 -113 -79 -186.5t-205 -73.5z"/>
<glyph unicode="à" horiz-adv-x="539" glyph-name="agrave" d="M357 304q3 16 3 31q0 65 -89 65q-72 0 -139 -48l-45 79q86 62 201 62q50 0 89.5 -13t68 -46.5t28.5 -85.5q0 -19 -4 -45l-35 -195q-12 -74 -12 -108h-108q0 27 6 57h-2q-56 -67 -156 -67q-61 0 -106 30t-45 97q0 187 345 187zM346 220h-14q-207 0 -207 -84q0 -60 78 -60 q53 0 90.5 32.5t46.5 81.5zM256 708l99 -144h-90l-141 144h132z"/>
<glyph unicode="á" horiz-adv-x="539" glyph-name="aacute" d="M357 304q3 16 3 31q0 65 -89 65q-72 0 -139 -48l-45 79q86 62 201 62q50 0 89.5 -13t68 -46.5t28.5 -85.5q0 -19 -4 -45l-35 -195q-12 -74 -12 -108h-108q0 27 6 57h-2q-56 -67 -156 -67q-61 0 -106 30t-45 97q0 187 345 187zM346 220h-14q-207 0 -207 -84q0 -60 78 -60 q53 0 90.5 32.5t46.5 81.5zM504 708l-165 -144h-93l125 144h133z"/>
<glyph unicode="â" horiz-adv-x="539" glyph-name="acircumflex" d="M357 304q3 16 3 31q0 65 -89 65q-72 0 -139 -48l-45 79q86 62 201 62q50 0 89.5 -13t68 -46.5t28.5 -85.5q0 -19 -4 -45l-35 -195q-12 -74 -12 -108h-108q0 27 6 57h-2q-56 -67 -156 -67q-61 0 -106 30t-45 97q0 187 345 187zM346 220h-14q-207 0 -207 -84q0 -60 78 -60 q53 0 90.5 32.5t46.5 81.5zM489 564h-108l-54 91l-86 -91h-112l140 144h132z"/>
<glyph unicode="ã" horiz-adv-x="539" glyph-name="atilde" d="M357 304q3 16 3 31q0 65 -89 65q-72 0 -139 -48l-45 79q86 62 201 62q50 0 89.5 -13t68 -46.5t28.5 -85.5q0 -19 -4 -45l-35 -195q-12 -74 -12 -108h-108q0 27 6 57h-2q-56 -67 -156 -67q-61 0 -106 30t-45 97q0 187 345 187zM346 220h-14q-207 0 -207 -84q0 -60 78 -60 q53 0 90.5 32.5t46.5 81.5zM184 568h-66q43 125 135 125q39 0 75 -18q40 -19 62 -19q33 0 53 44h66q-43 -125 -134 -125q-33 0 -69 17q-44 21 -68 21q-32 0 -54 -45z"/>
<glyph unicode="ä" horiz-adv-x="539" glyph-name="adieresis" d="M357 304q3 16 3 31q0 65 -89 65q-72 0 -139 -48l-45 79q86 62 201 62q50 0 89.5 -13t68 -46.5t28.5 -85.5q0 -19 -4 -45l-35 -195q-12 -74 -12 -108h-108q0 27 6 57h-2q-56 -67 -156 -67q-61 0 -106 30t-45 97q0 187 345 187zM346 220h-14q-207 0 -207 -84q0 -60 78 -60 q53 0 90.5 32.5t46.5 81.5zM284 646q0 -30 -19.5 -50.5t-49.5 -20.5t-49 18t-19 49t21 51t50 20t47.5 -18t18.5 -49zM482 646q0 -30 -19.5 -50.5t-49.5 -20.5t-49 18t-19 49t21 51t50 20t47.5 -18t18.5 -49z"/>
<glyph unicode="å" horiz-adv-x="539" glyph-name="aring" d="M357 304q3 16 3 31q0 65 -89 65q-72 0 -139 -48l-45 79q86 62 201 62q50 0 89.5 -13t68 -46.5t28.5 -85.5q0 -19 -4 -45l-35 -195q-12 -74 -12 -108h-108q0 27 6 57h-2q-56 -67 -156 -67q-61 0 -106 30t-45 97q0 187 345 187zM346 220h-14q-207 0 -207 -84q0 -60 78 -60 q53 0 90.5 32.5t46.5 81.5zM304 553q-39 0 -64.5 24.5t-25.5 61.5q0 49 32.5 83t82.5 34q39 0 64 -24t25 -61q0 -50 -32.5 -84t-81.5 -34zM369 662q0 20 -12.5 35t-32.5 15q-27 0 -44 -19t-17 -48q0 -20 12 -34t32 -14q27 0 44.5 18.5t17.5 46.5z"/>
<glyph unicode="æ" horiz-adv-x="885" glyph-name="ae" d="M629 493q89 0 144.5 -50t55.5 -142q0 -49 -12 -98h-356q-1 -5 -1 -11q0 -47 36.5 -78.5t89.5 -31.5q81 0 137 63l67 -63q-88 -96 -217 -96q-66 0 -116 25.5t-71 73.5q-61 -95 -203 -95q-29 0 -56.5 6t-54.5 19.5t-43.5 40.5t-16.5 64q0 45 21.5 77t53 49t82 26.5t93 12 t102.5 2.5q6 24 6 46q0 67 -89 67q-72 0 -139 -48l-45 79q86 62 201 62q125 0 152 -82q65 82 179 82zM348 186l3 17h-33q-95 0 -143.5 -14.5t-48.5 -53.5q0 -58 80 -58q123 0 142 109zM721 287q2 18 2 25q0 40 -28.5 66.5t-76.5 26.5q-57 0 -97 -37t-49 -81h249z"/>
<glyph unicode="ç" horiz-adv-x="492" glyph-name="ccedilla" d="M354 -138q0 -53 -44.5 -77.5t-99.5 -24.5q-64 0 -109 26l27 48q35 -20 78 -20q65 0 65 41q0 36 -47 36q-20 0 -40 -6l-18 25l67 78q-94 8 -150 64t-56 143q0 121 82 209.5t211 88.5q126 0 177 -81l-84 -68q-13 22 -40.5 37.5t-58.5 15.5q-73 0 -122 -55.5t-49 -131.5 q0 -54 31 -90t91 -36q71 0 123 54l67 -68q-72 -70 -164 -81l-47 -54q9 2 20 2q34 0 62 -18t28 -57z"/>
<glyph unicode="è" horiz-adv-x="564" glyph-name="egrave" d="M496 203h-356q-1 -5 -1 -11q0 -47 36.5 -78.5t89.5 -31.5q81 0 137 63l67 -63q-89 -96 -217 -96q-100 0 -162.5 57t-62.5 156q0 125 80 209.5t201 84.5q89 0 144.5 -50t55.5 -142q0 -49 -12 -98zM400 287q2 18 2 25q0 40 -28.5 66.5t-76.5 26.5q-57 0 -97 -37t-49 -81 h249zM266 708l99 -144h-90l-141 144h132z"/>
<glyph unicode="é" horiz-adv-x="564" glyph-name="eacute" d="M496 203h-356q-1 -5 -1 -11q0 -47 36.5 -78.5t89.5 -31.5q81 0 137 63l67 -63q-89 -96 -217 -96q-100 0 -162.5 57t-62.5 156q0 125 80 209.5t201 84.5q89 0 144.5 -50t55.5 -142q0 -49 -12 -98zM400 287q2 18 2 25q0 40 -28.5 66.5t-76.5 26.5q-57 0 -97 -37t-49 -81 h249zM504 708l-165 -144h-93l125 144h133z"/>
<glyph unicode="ê" horiz-adv-x="564" glyph-name="ecircumflex" d="M496 203h-356q-1 -5 -1 -11q0 -47 36.5 -78.5t89.5 -31.5q81 0 137 63l67 -63q-89 -96 -217 -96q-100 0 -162.5 57t-62.5 156q0 125 80 209.5t201 84.5q89 0 144.5 -50t55.5 -142q0 -49 -12 -98zM400 287q2 18 2 25q0 40 -28.5 66.5t-76.5 26.5q-57 0 -97 -37t-49 -81 h249zM520 564h-108l-54 91l-86 -91h-112l140 144h132z"/>
<glyph unicode="ë" horiz-adv-x="564" glyph-name="edieresis" d="M496 203h-356q-1 -5 -1 -11q0 -47 36.5 -78.5t89.5 -31.5q81 0 137 63l67 -63q-89 -96 -217 -96q-100 0 -162.5 57t-62.5 156q0 125 80 209.5t201 84.5q89 0 144.5 -50t55.5 -142q0 -49 -12 -98zM400 287q2 18 2 25q0 40 -28.5 66.5t-76.5 26.5q-57 0 -97 -37t-49 -81 h249zM313 646q0 -30 -19.5 -50.5t-49.5 -20.5t-49 18t-19 49t21 51t50 20t47.5 -18t18.5 -49zM511 646q0 -30 -19.5 -50.5t-49.5 -20.5t-49 18t-19 49t21 51t50 20t47.5 -18t18.5 -49z"/>
<glyph unicode="ì" horiz-adv-x="267" glyph-name="igrave" d="M138 0h-117l84 480h118zM129 708l99 -144h-90l-141 144h132z"/>
<glyph unicode="í" horiz-adv-x="267" glyph-name="iacute" d="M138 0h-117l84 480h118zM373 708l-165 -144h-93l125 144h133z"/>
<glyph unicode="î" horiz-adv-x="267" glyph-name="icircumflex" d="M138 0h-117l84 480h118zM355 564h-108l-54 91l-86 -91h-112l140 144h132z"/>
<glyph unicode="ï" horiz-adv-x="267" glyph-name="idieresis" d="M138 0h-117l84 480h118zM158 646q0 -30 -19.5 -50.5t-49.5 -20.5t-49 18t-19 49t21 51t50 20t47.5 -18t18.5 -49zM356 646q0 -30 -19.5 -50.5t-49.5 -20.5t-49 18t-19 49t21 51t50 20t47.5 -18t18.5 -49z"/>
<glyph unicode="ð" horiz-adv-x="604" glyph-name="eth" d="M553 312q0 -62 -17.5 -118.5t-52 -103.5t-92.5 -75t-132 -28q-101 0 -166.5 58.5t-65.5 150.5q0 119 78 208t204 89q79 0 114 -33l2 2q-42 96 -98 151l-117 -51l-49 56l119 51q-17 21 -67 65l96 52q40 -35 74 -74l122 53l53 -55l-126 -54q121 -147 121 -344zM432 273 q0 54 -33.5 89t-89.5 35q-73 0 -119.5 -55.5t-46.5 -133.5q0 -55 32.5 -89.5t89.5 -34.5q74 0 120.5 55t46.5 134z"/>
<glyph unicode="ñ" horiz-adv-x="584" glyph-name="ntilde" d="M203 405h2q56 88 156 88q76 0 116.5 -42.5t40.5 -106.5q0 -25 -4 -45l-53 -299h-117l46 264q5 27 5 48q0 81 -79 81q-53 0 -87.5 -38t-43.5 -91l-47 -264h-117l66 377q10 50 15 103h110q-1 -19 -9 -75zM220 568h-66q43 125 135 125q39 0 75 -18q40 -19 62 -19q33 0 53 44 h66q-43 -125 -134 -125q-33 0 -69 17q-44 21 -68 21q-32 0 -54 -45z"/>
<glyph unicode="ò" horiz-adv-x="604" glyph-name="ograve" d="M259 -13q-101 0 -166.5 58.5t-65.5 150.5q0 122 81 209.5t209 87.5q102 0 167.5 -58t65.5 -150q0 -124 -81 -211t-210 -87zM432 273q0 54 -33.5 89t-89.5 35q-73 0 -119.5 -55.5t-46.5 -133.5q0 -55 32.5 -89.5t89.5 -34.5q74 0 120.5 55t46.5 134zM276 708l99 -144h-90 l-141 144h132z"/>
<glyph unicode="ó" horiz-adv-x="604" glyph-name="oacute" d="M259 -13q-101 0 -166.5 58.5t-65.5 150.5q0 122 81 209.5t209 87.5q102 0 167.5 -58t65.5 -150q0 -124 -81 -211t-210 -87zM432 273q0 54 -33.5 89t-89.5 35q-73 0 -119.5 -55.5t-46.5 -133.5q0 -55 32.5 -89.5t89.5 -34.5q74 0 120.5 55t46.5 134zM528 708l-165 -144 h-93l125 144h133z"/>
<glyph unicode="ô" horiz-adv-x="604" glyph-name="ocircumflex" d="M259 -13q-101 0 -166.5 58.5t-65.5 150.5q0 122 81 209.5t209 87.5q102 0 167.5 -58t65.5 -150q0 -124 -81 -211t-210 -87zM432 273q0 54 -33.5 89t-89.5 35q-73 0 -119.5 -55.5t-46.5 -133.5q0 -55 32.5 -89.5t89.5 -34.5q74 0 120.5 55t46.5 134zM527 564h-108l-54 91 l-86 -91h-112l140 144h132z"/>
<glyph unicode="õ" horiz-adv-x="604" glyph-name="otilde" d="M259 -13q-101 0 -166.5 58.5t-65.5 150.5q0 122 81 209.5t209 87.5q102 0 167.5 -58t65.5 -150q0 -124 -81 -211t-210 -87zM432 273q0 54 -33.5 89t-89.5 35q-73 0 -119.5 -55.5t-46.5 -133.5q0 -55 32.5 -89.5t89.5 -34.5q74 0 120.5 55t46.5 134zM224 568h-66 q43 125 135 125q39 0 75 -18q40 -19 62 -19q33 0 53 44h66q-43 -125 -134 -125q-33 0 -69 17q-44 21 -68 21q-32 0 -54 -45z"/>
<glyph unicode="ö" horiz-adv-x="604" glyph-name="odieresis" d="M259 -13q-101 0 -166.5 58.5t-65.5 150.5q0 122 81 209.5t209 87.5q102 0 167.5 -58t65.5 -150q0 -124 -81 -211t-210 -87zM432 273q0 54 -33.5 89t-89.5 35q-73 0 -119.5 -55.5t-46.5 -133.5q0 -55 32.5 -89.5t89.5 -34.5q74 0 120.5 55t46.5 134zM324 646 q0 -30 -19.5 -50.5t-49.5 -20.5t-49 18t-19 49t21 51t50 20t47.5 -18t18.5 -49zM522 646q0 -30 -19.5 -50.5t-49.5 -20.5t-49 18t-19 49t21 51t50 20t47.5 -18t18.5 -49z"/>
<glyph unicode="÷" horiz-adv-x="666" glyph-name="divide" d="M258 483q0 31 22 53t53 22t53 -22t22 -53t-22 -53t-53 -22t-53 22t-22 53zM258 123q0 31 22 53t53 22t53 -22t22 -53t-22 -53t-53 -22t-53 22t-22 53zM586 250h-506v107h506v-107z"/>
<glyph unicode="ø" horiz-adv-x="604" glyph-name="oslash" d="M98 40l-79 -67l-33 41l76 66q-35 51 -35 116q0 122 81 209.5t209 87.5q93 0 160 -51l79 68l35 -40l-77 -67q36 -52 36 -118q0 -124 -81 -211t-210 -87q-97 0 -161 53zM152 157l241 210q-33 30 -84 30q-73 0 -119.5 -55.5t-46.5 -133.5q0 -28 9 -51zM179 115 q34 -31 86 -31q74 0 120.5 55t46.5 134q0 31 -10 52z"/>
<glyph unicode="ù" horiz-adv-x="584" glyph-name="ugrave" d="M350 75h-2q-56 -88 -156 -88q-76 0 -116.5 42.5t-40.5 106.5q0 25 4 45l53 299h117l-46 -264q-5 -27 -5 -48q0 -81 79 -81q53 0 87.5 38t43.5 91l47 264h117l-66 -377q-10 -50 -15 -103h-110q1 19 9 75zM258 708l99 -144h-90l-141 144h132z"/>
<glyph unicode="ú" horiz-adv-x="584" glyph-name="uacute" d="M350 75h-2q-56 -88 -156 -88q-76 0 -116.5 42.5t-40.5 106.5q0 25 4 45l53 299h117l-46 -264q-5 -27 -5 -48q0 -81 79 -81q53 0 87.5 38t43.5 91l47 264h117l-66 -377q-10 -50 -15 -103h-110q1 19 9 75zM524 708l-165 -144h-93l125 144h133z"/>
<glyph unicode="û" horiz-adv-x="584" glyph-name="ucircumflex" d="M350 75h-2q-56 -88 -156 -88q-76 0 -116.5 42.5t-40.5 106.5q0 25 4 45l53 299h117l-46 -264q-5 -27 -5 -48q0 -81 79 -81q53 0 87.5 38t43.5 91l47 264h117l-66 -377q-10 -50 -15 -103h-110q1 19 9 75zM507 564h-108l-54 91l-86 -91h-112l140 144h132z"/>
<glyph unicode="ü" horiz-adv-x="584" glyph-name="udieresis" d="M350 75h-2q-56 -88 -156 -88q-76 0 -116.5 42.5t-40.5 106.5q0 25 4 45l53 299h117l-46 -264q-5 -27 -5 -48q0 -81 79 -81q53 0 87.5 38t43.5 91l47 264h117l-66 -377q-10 -50 -15 -103h-110q1 19 9 75zM307 646q0 -30 -19.5 -50.5t-49.5 -20.5t-49 18t-19 49t21 51 t50 20t47.5 -18t18.5 -49zM505 646q0 -30 -19.5 -50.5t-49.5 -20.5t-49 18t-19 49t21 51t50 20t47.5 -18t18.5 -49z"/>
<glyph unicode="ý" horiz-adv-x="506" glyph-name="yacute" d="M543 480l-340 -584q-41 -72 -80 -104t-104 -32q-33 0 -61 7l15 102q21 -7 44 -7q31 0 49.5 16.5t42.5 58.5l36 62l-108 481h126l62 -352h2l192 352h124zM504 708l-165 -144h-93l125 144h133z"/>
<glyph unicode="þ" horiz-adv-x="629" glyph-name="thorn" d="M147 76l-53 -316h-118l176 996h117l-65 -353h3q27 42 72 65t99 23q92 0 147.5 -57t55.5 -150q0 -125 -75 -211.5t-189 -86.5q-122 0 -168 90h-2zM461 270q0 54 -31.5 89.5t-86.5 35.5q-70 0 -119 -56t-49 -133q0 -55 33.5 -90t88.5 -35q73 0 118.5 54.5t45.5 134.5z"/>
</font>
</defs>
</svg>
